<svg id="レイヤー_1" data-name="レイヤー 1" xmlns="http://www.w3.org/2000/svg" viewBox="0 0 211.78 198.5" width="40%"><defs><style>.cls-1,.cls-3,.cls-4{fill:none;stroke:#fff;stroke-linecap:round}.cls-1{stroke-miterlimit:10}.cls-1,.cls-4{stroke-width:5px}.cls-2{fill:#fff}.cls-3,.cls-4{stroke-linejoin:round}.cls-3{stroke-width:3px}</style></defs><ellipse class="cls-1" cx="59.58" cy="58.4" rx="48.9" ry="55.9"/><ellipse class="cls-2" cx="42.18" cy="65.3" rx="4" ry="6"/><ellipse class="cls-2" cx="76.88" cy="65.3" rx="4" ry="6"/><path class="cls-3" d="M59.38 69l-6.7 12.5h6"/><path class="cls-3" d="M358.7 292.4c2.7 4.3 10.7 6.5 17.1 6.5s14.4-2.2 17.1-6.5" transform="translate(-316.22 -198.1)"/><path class="cls-4" d="M329.6 276.3a7.65 7.65 0 0 1-9.1-5.8l-1.6-7.3a7.65 7.65 0 0 1 5.8-9.1M422.4 276.4a7.64 7.64 0 0 0 9-5.9l1.5-7.3a7.64 7.64 0 0 0-5.9-9" transform="translate(-316.22 -198.1)"/><path class="cls-3" d="M59.58 120.4l-9.8 6.5-6.7-4.5-1.1-7.2 4.8-3.2 12.8 8.4z"/><path class="cls-3" d="M59.48 120.4l9.8 6.5 5.5-3.7 1.3-8.7-3.8-2.5-12.8 8.4z"/><path class="cls-2" d="M67.98 127.9l-8.4 7.9-8.5-7.9 8.5-6.1 8.4 6.1z"/><path class="cls-2" d="M61.48 185h-5.4l-3.7-21.1 3.7-33.1h7l3.8 34.3-5.4 19.9z"/><path class="cls-3" d="M76.88 114.2l-18.5 79.3h5.8l19.8-45.6-3.3-6.9 6.1-6.3-3-17.7-6.9-2.8z"/><path class="cls-3" d="M40.98 114.2l18.5 79.3h-5.7l-19.8-45.6 3.3-6.9-6.1-6.3 3-17.7 6.8-2.8z"/><path class="cls-1" d="M417.9 337.9a25.07 25.07 0 0 0-25-25h-34a25.07 25.07 0 0 0-25 25v53.8h84z" transform="translate(-316.22 -198.1)"/><path class="cls-2" d="M416 223.1c-8.2-12.1-18-20-22.6-18.2-7.2-6.5-23.9-5-39.8 4.2-9 5.2-16 11.8-20 18.3-1.8-.9-3-2.1-4.6-3-3.3-2-7.2-1.6-6.5 4.1 0 0 3.6 18.2 16.8 21.8.5.1.9.2 1.3.3 8.5 1.8 20.7-.8 32.6-7.6 10-5.8 17.5-13.3 21.3-20.5a83.44 83.44 0 0 0 6.2 11c8.6 12.7 19 20.8 23.2 17.9s.6-15.6-7.9-28.3zm-56.4 13c13.1-1.6 21.4-6.3 21.4-6.3-11.3 7.8-19.6 10.6-33.8 9.3-8.7-.8-11.6-3.9-11.6-3.9 8.1 2.8 19.1 1.5 24 .9zm-14.9 10c-8.9-1.1-11.9-5.7-11.9-5.7 8.3 3.9 19.6 2.1 24.6 1.2 13.4-2.3 27.6-13.8 27.6-13.8-10.6 12.5-25.6 20.2-40.3 18.3zm67.5-4.7c-7.1-5.5-13.4-16.5-13.4-16.5s7.2 9.1 11.7 12.7a26.55 26.55 0 0 0 8.4 4.7l.9 4c.1 0-1.7-.4-7.6-4.9z" transform="translate(-316.22 -198.1)"/><path class="cls-4" d="M145.28 101.5h30.5v16h-30.5z"/><path class="cls-4" d="M515.5 394.1H438a10 10 0 0 1-10-10v-58a10 10 0 0 1 10-10h77.5a10 10 0 0 1 10 10v58a10 10 0 0 1-10 10z" transform="translate(-316.22 -198.1)"/><path class="cls-3" d="M130.78 140.5h59.5M130.78 157h59.5M130.78 173.5h59.5"/></svg>