<svg width="40%" xmlns="http://www.w3.org/2000/svg" viewBox="0 0 215.34 196.9"><defs><style>.a{fill:#fff}.b,.c,.d{fill:none;stroke:#fff;stroke-linecap:round}.b{stroke-miterlimit:10}.b,.d{stroke-width:5px}.c,.d{stroke-linejoin:round}.c{stroke-width:3px}</style></defs><ellipse class="a" cx="67.8" cy="83.3" rx="41.3" ry="46.7"/><ellipse class="b" cx="161.5" cy="51.4" rx="42.8" ry="48.9"/><ellipse class="a" cx="146.3" cy="57.5" rx="3.5" ry="5.3"/><ellipse class="a" cx="176.7" cy="57.5" rx="3.5" ry="5.3"/><path class="c" d="M161.4 60.8l-6 10.9h5.3M146.5 82.9c2.3 3.8 9.4 5.7 14.9 5.7s12.6-1.9 14.9-5.7"/><path class="d" d="M120.7 68.6a6.75 6.75 0 0 1-8.2-4.7l-1.7-6.3a6.75 6.75 0 0 1 4.7-8.2M202.7 68.6a6.75 6.75 0 0 0 8.2-4.7l1.7-6.3a6.75 6.75 0 0 0-4.7-8.2"/><path class="c" d="M161.5 105.8l-8.5 5.6-5.9-3.8-1-6.4 4.2-2.8 11.2 7.4zM161.5 105.8l8.5 5.6 4.8-3.1 1.2-7.7-3.4-2.2-11.1 7.4z"/><path class="a" d="M168.9 112.3l-7.4 6.9-7.5-6.9 7.5-5.3 7.4 5.3z"/><path class="a" d="M163.2 162.4h-4.7l-3.3-18.5 3.2-29h6.1l3.4 30-4.7 17.5z"/><path class="c" d="M176.7 100.3l-16.2 69.5h5l17.4-40-2.9-6 5.3-5.5-2.6-15.5-6-2.5z"/><path class="c" d="M145.3 100.3l16.2 69.5h-5.1l-17.3-40 2.9-6-5.4-5.5 2.6-15.5 6.1-2.5z"/><path class="b" d="M198.4 122.7a22 22 0 0 0-21.9-21.9h-29.8a22 22 0 0 0-21.9 21.9v47.2h73.6v-47.2z"/><path class="a" d="M196.7 22.2c-7.2-10.6-15.7-17.5-19.8-16C170.6.5 156 1.8 142 9.9c-7.9 4.5-14 10.3-17.5 16a46.36 46.36 0 0 1-4-2.6c-2.9-1.7-6.3-1.4-5.7 3.6 0 0 3.1 15.9 14.7 19.1l1.2.3c7.4 1.6 18.2-.7 28.5-6.7 8.8-5.1 15.4-11.7 18.6-18a67.5 67.5 0 0 0 5.4 9.6c7.5 11.2 16.6 18.2 20.3 15.7s.7-13.6-6.8-24.7zm-49.4 11.4c11.4-1.4 15.6-4.5 15.6-4.5-9.9 6.9-14.3 7-26.5 7.2-7.7.1-10.2-3.4-10.2-3.4 7.2 2.3 16.9 1.2 21.1.7zm-13 8.8c-7.8-1-10.4-5-10.4-5 7.3 3.4 17.2 1.8 21.6 1.1 11.7-2 24.2-12 24.2-12-9.4 10.7-22.6 17.5-35.4 15.9zm59.1-4.2c-6.2-4.8-11.7-14.5-11.7-14.5s6.3 7.9 10.2 11.1a21.42 21.42 0 0 0 7.4 4.1l.8 3.5c0 .1-1.5-.2-6.7-4.2z"/><path class="c" d="M172.3 43.2a12.12 12.12 0 0 1 5.3-.9c3.1.4 5.5 3.4 5.5 3.4"/><path class="b" d="M2.5 170.2h209"/><path class="a" d="M125 148a29.23 29.23 0 0 0-29.2-29.2H39.7A29.23 29.23 0 0 0 10.5 148v48.9H125V148z"/></svg>