<svg width="40%" xmlns="http://www.w3.org/2000/svg" viewBox="0 0 215.34 196.9">
  <defs>
    <style>
      .a {
        fill: #fff;
      }
      .b,
      .c,
      .d {
        fill: none;
        stroke: #fff;
        stroke-linecap: round;
      }
      .b {
        stroke-miterlimit: 10;
      }
      .b,
      .d {
        stroke-width: 5px;
      }
      .c,
      .d {
        stroke-linejoin: round;
      }
      .c {
        stroke-width: 3px;
      }
    </style>
  </defs>
  <title>アドバイス男</title>
  <ellipse class="a" cx="67.8" cy="83.3" rx="41.3" ry="46.7"></ellipse>
  <ellipse class="b" cx="161.5" cy="51.4" rx="42.8" ry="48.9"></ellipse>
  <ellipse class="a" cx="146.3" cy="57.5" rx="3.5" ry="5.3"></ellipse>
  <ellipse class="a" cx="176.7" cy="57.5" rx="3.5" ry="5.3"></ellipse>
  <polyline class="c" points="161.4 60.8 155.4 71.7 160.7 71.7"></polyline>
  <path
    class="c"
    d="M146.5,82.9c2.3,3.8,9.4,5.7,14.9,5.7s12.6-1.9,14.9-5.7"
  ></path>
  <path
    class="d"
    d="M120.7,68.6a6.75,6.75,0,0,1-8.2-4.7l-1.7-6.3a6.75,6.75,0,0,1,4.7-8.2h0"
  ></path>
  <path
    class="d"
    d="M202.7,68.6a6.75,6.75,0,0,0,8.2-4.7l1.7-6.3a6.75,6.75,0,0,0-4.7-8.2h0"
  ></path>
  <polygon
    class="c"
    points="161.5 105.8 153 111.4 147.1 107.6 146.1 101.2 150.3 98.4 161.5 105.8"
  ></polygon>
  <polygon
    class="c"
    points="161.5 105.8 170 111.4 174.8 108.3 176 100.6 172.6 98.4 161.5 105.8"
  ></polygon>
  <polygon
    class="a"
    points="168.9 112.3 161.5 119.2 154 112.3 161.5 107 168.9 112.3"
  ></polygon>
  <polygon
    class="a"
    points="163.2 162.4 158.5 162.4 155.2 143.9 158.4 114.9 164.5 114.9 167.9 144.9 163.2 162.4"
  ></polygon>
  <polygon
    class="c"
    points="176.7 100.3 160.5 169.8 165.5 169.8 182.9 129.8 180 123.8 185.3 118.3 182.7 102.8 176.7 100.3"
  ></polygon>
  <polygon
    class="c"
    points="145.3 100.3 161.5 169.8 156.4 169.8 139.1 129.8 142 123.8 136.6 118.3 139.2 102.8 145.3 100.3"
  ></polygon>
  <path
    class="b"
    d="M198.4,122.7a22,22,0,0,0-21.9-21.9H146.7a22,22,0,0,0-21.9,21.9v47.2h73.6V122.7Z"
  ></path>
  <path
    class="a"
    d="M196.7,22.2c-7.2-10.6-15.7-17.5-19.8-16C170.6.5,156,1.8,142,9.9c-7.9,4.5-14,10.3-17.5,16a46.36,46.36,0,0,1-4-2.6c-2.9-1.7-6.3-1.4-5.7,3.6,0,0,3.1,15.9,14.7,19.1l1.2.3c7.4,1.6,18.2-.7,28.5-6.7,8.8-5.1,15.4-11.7,18.6-18a67.5,67.5,0,0,0,5.4,9.6c7.5,11.2,16.6,18.2,20.3,15.7S204.2,33.3,196.7,22.2ZM147.3,33.6c11.4-1.4,15.6-4.5,15.6-4.5-9.9,6.9-14.3,7-26.5,7.2-7.7.1-10.2-3.4-10.2-3.4C133.4,35.2,143.1,34.1,147.3,33.6Zm-13,8.8c-7.8-1-10.4-5-10.4-5,7.3,3.4,17.2,1.8,21.6,1.1,11.7-2,24.2-12,24.2-12C160.3,37.2,147.1,44,134.3,42.4Zm59.1-4.2c-6.2-4.8-11.7-14.5-11.7-14.5s6.3,7.9,10.2,11.1a21.42,21.42,0,0,0,7.4,4.1l.8,3.5C200.1,42.5,198.6,42.2,193.4,38.2Z"
  ></path>
  <path
    class="c"
    d="M172.3,43.2a12.12,12.12,0,0,1,5.3-.9c3.1.4,5.5,3.4,5.5,3.4"
  ></path>
  <line class="b" x1="2.5" y1="170.2" x2="211.5" y2="170.2"></line>
  <path
    class="a"
    d="M125,148a29.23,29.23,0,0,0-29.2-29.2H39.7A29.23,29.23,0,0,0,10.5,148v48.9H125V148Z"
  ></path>
</svg>
