<svg version="1.1" xmlns="http://www.w3.org/2000/svg" xmlns:xlink="http://www.w3.org/1999/xlink" width="40" height="40" viewBox="0 0 768 768">
  <path
    fill="#3cb371"
    d="M128 96h512q39.75 0 67.875 28.125t28.125 67.875v384q0 39.75-28.125 67.875t-67.875 28.125h-512q-39.75 0-67.875-28.125t-28.125-67.875v-384q0-39.75 28.125-67.875t67.875-28.125zM672 576v-349.5l-268 214.5q-8.5 7-20 7t-20-7l-268-214.5v349.5q0 13.25 9.375 22.625t22.625 9.375h512q13.25 0 22.625-9.375t9.375-22.625zM640 160h-512q-4.75 0-10.5 1.75l266.5 213.25 266.5-213.25q-5.75-1.75-10.5-1.75z"
  ></path>
</svg>
