<svg width="242.302" height="242.302" viewBox="0 0 64.109 64.109" xmlns="http://www.w3.org/2000/svg"><path d="M5.97 0h26.084l-5.008 26.617L0 32.055V5.97A5.957 5.957 0 0 1 5.97 0z" fill="#8cd1e4"/><path d="M5.97 0h26.084v32.054H0V5.97A5.957 5.957 0 0 1 5.97 0z" fill="#6c9b31"/><path d="M64.109 5.97v26.084H32.054V0h26.084a5.957 5.957 0 0 1 5.97 5.97z" fill="#8cd1e4"/><path d="M58.139 64.11H32.055V32.056h32.054V58.14a5.957 5.957 0 0 1-5.97 5.97z" fill="none"/><path d="M0 58.14V32.056h32.054V64.11H5.97A5.957 5.957 0 0 1 0 58.14z" fill="#9fca3d"/><path d="M58.139 64.11H32.055V32.056H64.11V58.14a5.957 5.957 0 0 1-5.97 5.97z" fill="#fff"/></svg>