<svg xmlns="http://www.w3.org/2000/svg" width="40" height="40" viewBox="0 0 512 512"><path fill="#3cb371" d="M337 0q20.834 0 40 7.833 20 8 35.334 23.334 15.5 15.666 23.334 35.166 7.666 18.834 7.666 40t-7.666 40q-7.834 19.5-23.334 35.166L216.001 377.832q-9 9-21.333 14.166-12 4.666-24 4.666t-24-4.666q-12.334-5.166-21.334-14.166-9.334-9.334-14-21.166-4.666-11.334-4.666-24 0-12.834 4.666-24.166 4.666-11.666 14-21.166l181.167-181Q312.835 100 321.667 100q8.666 0 15 6.334t6.334 15q0 8.834-6.334 15.166L155.5 317.5q-6.167 6.166-6.167 15.166 0 8.834 6.167 15Q162.167 354 170.667 354t15.166-6.334l196.334-196.333q18.5-18.5 18.5-45t-18.5-45q-19-18.666-45.166-18.666-26.334 0-45 18.666L95.168 257.166Q79.834 272.5 71.834 292.5 64 311.666 64 332.666q0 20.666 7.834 40.166 8 19.834 23.334 35.166 15.834 15.666 35.333 23.5t40.166 7.834 40.166-7.834 35.334-23.5l196-196q6.334-6.333 15.166-6.333 8.666 0 15 6.333t6.334 15q0 8.834-6.334 15.166l-196 196q-21.5 21.5-49.5 32.834-26.666 11-56.166 11-29.334 0-56.166-11-28-11.334-49.5-32.834-21.334-21.334-32.666-49.334-11-27-11-56.166 0-29.334 11-56.166 11.166-27.666 32.666-49.5h.166L261.834 31.165Q277.168 15.831 297 7.831q19.5-7.833 40-7.833z"/></svg>