<svg xmlns="http://www.w3.org/2000/svg" width="40" height="40" viewBox="0 0 768 768"><path fill="#3cb371" d="M32 416h192q13.25 0 22.625 9.375T256 448t-9.375 22.625T224 480H116l87 85q37 37.25 84.75 56.25Q333.5 640 384 640t96.25-18.75q25-10.25 46.875-25.125t37.25-30.5 28-33.5 20.25-32.875 12.875-30q4.5-12.5 16.5-18.125t24.25-1.375q12.5 4.5 18.125 16.375t1.375 24.125q-10.5 32-30.5 63.5t-45 56.5q-46 46-105.75 70.25Q446.5 704 384 704q-62.25 0-120.5-23.5-59.75-24.25-105.75-70.25L64 518.5V640q0 13.25-9.375 22.625T32 672t-22.625-9.375T0 640V448q0-13.25 9.375-22.625T32 416zM384 64q62.25 0 120.5 23.5 59.75 24.25 105.75 70.25l.5.5L704 249.5V128q0-13.25 9.375-22.625T736 96t22.625 9.375T768 128v192q0 13.25-9.375 22.625T736 352H544q-13.25 0-22.625-9.375T512 320t9.375-22.625T544 288h108l-87-85q-36.5-36.5-83.125-55.75T384 128q-50.5 0-96.25 18.75Q240 165.75 203 203q-15 13.25-32.875 40.375T142.5 298.75q-4.5 12.5-16.5 18.125t-24.25 1.375q-12.5-4.5-18.125-16.375T82.25 277.75q10.5-32 30.5-63.5t45-56.5q46-46 105.75-70.25Q321.75 64 384 64z"/></svg>