<svg id="レイヤー_1" data-name="レイヤー 1" xmlns="http://www.w3.org/2000/svg" viewBox="0 0 213.69 183.2" width="40%"><defs><style>.cls-1,.cls-3,.cls-4,.cls-5,.cls-6{fill:none;stroke:#fff;stroke-linecap:round;}.cls-1{stroke-miterlimit:10;}.cls-1,.cls-4{stroke-width:5px;}.cls-2{fill:#fff;}.cls-3,.cls-4,.cls-5,.cls-6{stroke-linejoin:round;}.cls-3{stroke-width:3px;}.cls-5{stroke-width:4.55px;}.cls-6{stroke-width:3.09px;}</style></defs><title>アドバイスボード</title><ellipse class="cls-1" cx="157.74" cy="54.4" rx="45.5" ry="51.9"></ellipse><ellipse class="cls-2" cx="141.54" cy="60.8" rx="3.7" ry="5.6"></ellipse><ellipse class="cls-2" cx="173.84" cy="60.8" rx="3.7" ry="5.6"></ellipse><polyline class="cls-3" points="157.54 64.3 151.34 75.9 156.84 75.9"></polyline><path class="cls-3" d="M454.7,292.8c2.5,4,10,6,15.9,6s13.4-2,15.9-6" transform="translate(-312.86 -205)"></path><path class="cls-4" d="M427.2,277.6a7.08,7.08,0,0,1-8.7-5l-1.8-6.7a7.08,7.08,0,0,1,5-8.7h0" transform="translate(-312.86 -205)"></path><path class="cls-4" d="M513.3,277.6a7.08,7.08,0,0,0,8.7-5l1.8-6.7a7.08,7.08,0,0,0-5-8.7h0" transform="translate(-312.86 -205)"></path><polygon class="cls-3" points="157.75 112.1 148.65 118.1 142.44 114 141.44 107.2 145.84 104.3 157.75 112.1"></polygon><polygon class="cls-3" points="157.65 112.1 166.75 118.1 171.84 114.7 173.04 106.6 169.54 104.3 157.65 112.1"></polygon><polygon class="cls-2" points="165.65 119 157.75 126.4 149.84 119 157.75 113.4 165.65 119"></polygon><polygon class="cls-2" points="159.54 172.2 154.54 172.2 151.04 152.5 154.44 121.7 160.94 121.7 164.54 153.6 159.54 172.2"></polygon><polygon class="cls-3" points="173.84 106.3 156.65 180.1 162.04 180.1 180.44 137.6 177.34 131.3 183.04 125.3 180.25 108.9 173.84 106.3"></polygon><polygon class="cls-3" points="140.54 106.3 157.75 180.1 152.34 180.1 133.94 137.6 137.04 131.3 131.34 125.3 134.15 108.9 140.54 106.3"></polygon><path class="cls-1" d="M509.7,335.1a23.28,23.28,0,0,0-23.2-23.2H454.9a23.28,23.28,0,0,0-23.2,23.2v50h78.1v-50Z" transform="translate(-312.86 -205)"></path><path class="cls-2" d="M507.9,228.3c-7.6-11.3-16.7-18.6-21-17-6.7-6.1-22.2-4.6-37,3.9-8.3,4.8-14.8,11-18.6,17a45.51,45.51,0,0,1-4.3-2.8c-3.1-1.8-6.7-1.5-6,3.9,0,0,3.3,16.9,15.6,20.3l1.2.3c7.9,1.7,19.3-.7,30.3-7.1,9.3-5.4,16.3-12.4,19.8-19.1a72.35,72.35,0,0,0,5.8,10.2c8,11.9,17.6,19.3,21.6,16.7S515.9,240.2,507.9,228.3Zm-52.3,12.2a60.18,60.18,0,0,0,19.9-5.8c-10.5,7.3-18.2,9.9-31.4,8.7-8.1-.7-10.8-3.6-10.8-3.6C440.7,242.2,451,241,455.6,240.5Zm-13.9,9.3c-8.3-1.1-11-5.3-11-5.3,7.7,3.7,18.2,1.9,22.9,1.1,12.4-2.1,25.7-12.8,25.7-12.8C469.3,244.3,455.3,251.5,441.7,249.8Zm62.8-4.4c-6.6-5.1-12.4-15.3-12.4-15.3s6.7,8.4,10.9,11.8a24.1,24.1,0,0,0,7.8,4.4l.8,3.7C511.6,249.9,510,249.6,504.5,245.4Z" transform="translate(-312.86 -205)"></path><rect class="cls-4" x="37.94" y="58.3" width="30.5" height="16"></rect><path class="cls-4" d="M404.8,385.7H327.3a10,10,0,0,1-10-10V279.8a10,10,0,0,1,10-10h77.5a10,10,0,0,1,10,10v95.9A10,10,0,0,1,404.8,385.7Z" transform="translate(-312.86 -205)"></path><line class="cls-3" x1="34.84" y1="93.3" x2="83.44" y2="93.3"></line><line class="cls-3" x1="34.84" y1="109.8" x2="83.44" y2="109.8"></line><line class="cls-3" x1="34.84" y1="126.3" x2="83.44" y2="126.3"></line><line class="cls-3" x1="34.84" y1="142.9" x2="83.44" y2="142.9"></line><line class="cls-3" x1="34.84" y1="159.4" x2="83.44" y2="159.4"></line><polyline class="cls-5" points="16.64 89.3 19.14 93.7 26.45 84.7"></polyline><polyline class="cls-5" points="16.64 107.2 19.14 111.5 26.45 102.5"></polyline><polyline class="cls-5" points="16.64 125 19.14 129.3 26.45 120.3"></polyline><line class="cls-6" x1="16.54" y1="25.3" x2="21.74" y2="42.8"></line><line class="cls-6" x1="1.54" y1="36.4" x2="13.54" y2="46.3"></line><line class="cls-6" x1="35.24" y1="26.5" x2="30.54" y2="41.3"></line></svg>
