<svg
  id="レイヤー_1"
  data-name="レイヤー 1"
  xmlns="http://www.w3.org/2000/svg"
  viewBox="0 0 211.78 198.5"
  width="40%"
>
  <defs>
    <style>
      .cls-1,
      .cls-3,
      .cls-4 {
        fill: none;
        stroke: #fff;
        stroke-linecap: round;
      }
      .cls-1 {
        stroke-miterlimit: 10;
      }
      .cls-1,
      .cls-4 {
        stroke-width: 5px;
      }
      .cls-2 {
        fill: #fff;
      }
      .cls-3,
      .cls-4 {
        stroke-linejoin: round;
      }
      .cls-3 {
        stroke-width: 3px;
      }
    </style>
  </defs>
  <title>アドバイス男カバン</title>
  <ellipse class="cls-1" cx="59.58" cy="58.4" rx="48.9" ry="55.9"></ellipse>
  <ellipse class="cls-2" cx="42.18" cy="65.3" rx="4" ry="6"></ellipse>
  <ellipse class="cls-2" cx="76.88" cy="65.3" rx="4" ry="6"></ellipse>
  <polyline class="cls-3" points="59.38 69 52.68 81.5 58.68 81.5"></polyline>
  <path
    class="cls-3"
    d="M358.7,292.4c2.7,4.3,10.7,6.5,17.1,6.5s14.4-2.2,17.1-6.5"
    transform="translate(-316.22 -198.1)"
  ></path>
  <path
    class="cls-4"
    d="M329.6,276.3a7.65,7.65,0,0,1-9.1-5.8l-1.6-7.3a7.65,7.65,0,0,1,5.8-9.1h0"
    transform="translate(-316.22 -198.1)"
  ></path>
  <path
    class="cls-4"
    d="M422.4,276.4a7.64,7.64,0,0,0,9-5.9l1.5-7.3a7.64,7.64,0,0,0-5.9-9h0"
    transform="translate(-316.22 -198.1)"
  ></path>
  <polygon
    class="cls-3"
    points="59.58 120.4 49.78 126.9 43.08 122.4 41.98 115.2 46.78 112 59.58 120.4"
  ></polygon>
  <polygon
    class="cls-3"
    points="59.48 120.4 69.28 126.9 74.78 123.2 76.08 114.5 72.28 112 59.48 120.4"
  ></polygon>
  <polygon
    class="cls-2"
    points="67.98 127.9 59.58 135.8 51.08 127.9 59.58 121.8 67.98 127.9"
  ></polygon>
  <polygon
    class="cls-2"
    points="61.48 185 56.08 185 52.38 163.9 56.08 130.8 63.08 130.8 66.88 165.1 61.48 185"
  ></polygon>
  <polygon
    class="cls-3"
    points="76.88 114.2 58.38 193.5 64.18 193.5 83.98 147.9 80.68 141 86.78 134.7 83.78 117 76.88 114.2"
  ></polygon>
  <polygon
    class="cls-3"
    points="40.98 114.2 59.48 193.5 53.78 193.5 33.98 147.9 37.28 141 31.18 134.7 34.18 117 40.98 114.2"
  ></polygon>
  <path
    class="cls-1"
    d="M417.9,337.9a25.07,25.07,0,0,0-25-25h-34a25.07,25.07,0,0,0-25,25v53.8h84Z"
    transform="translate(-316.22 -198.1)"
  ></path>
  <path
    class="cls-2"
    d="M416,223.1c-8.2-12.1-18-20-22.6-18.2-7.2-6.5-23.9-5-39.8,4.2-9,5.2-16,11.8-20,18.3-1.8-.9-3-2.1-4.6-3-3.3-2-7.2-1.6-6.5,4.1,0,0,3.6,18.2,16.8,21.8.5.1.9.2,1.3.3,8.5,1.8,20.7-.8,32.6-7.6,10-5.8,17.5-13.3,21.3-20.5a83.44,83.44,0,0,0,6.2,11c8.6,12.7,19,20.8,23.2,17.9S424.5,235.8,416,223.1Zm-56.4,13c13.1-1.6,21.4-6.3,21.4-6.3-11.3,7.8-19.6,10.6-33.8,9.3-8.7-.8-11.6-3.9-11.6-3.9C343.7,238,354.7,236.7,359.6,236.1Zm-14.9,10c-8.9-1.1-11.9-5.7-11.9-5.7,8.3,3.9,19.6,2.1,24.6,1.2,13.4-2.3,27.6-13.8,27.6-13.8C374.4,240.3,359.4,248,344.7,246.1Zm67.5-4.7c-7.1-5.5-13.4-16.5-13.4-16.5s7.2,9.1,11.7,12.7a26.55,26.55,0,0,0,8.4,4.7l.9,4C419.9,246.3,418.1,245.9,412.2,241.4Z"
    transform="translate(-316.22 -198.1)"
  ></path>
  <rect class="cls-4" x="145.28" y="101.5" width="30.5" height="16"></rect>
  <path
    class="cls-4"
    d="M515.5,394.1H438a10,10,0,0,1-10-10v-58a10,10,0,0,1,10-10h77.5a10,10,0,0,1,10,10v58A10,10,0,0,1,515.5,394.1Z"
    transform="translate(-316.22 -198.1)"
  ></path>
  <line class="cls-3" x1="130.78" y1="140.5" x2="190.28" y2="140.5"></line>
  <line class="cls-3" x1="130.78" y1="157" x2="190.28" y2="157"></line>
  <line class="cls-3" x1="130.78" y1="173.5" x2="190.28" y2="173.5"></line>
</svg>
