<svg version="1.1" xmlns="http://www.w3.org/2000/svg" xmlns:xlink="http://www.w3.org/1999/xlink" width="40" height="40" viewBox="0 0 768 768" >
  <path
    fill="#3cb371"
    d="M160 0h448q39.75 0 67.875 28.125t28.125 67.875v576q0 39.75-28.125 67.875t-67.875 28.125h-448q-39.75 0-67.875-28.125t-28.125-67.875v-576q0-39.75 28.125-67.875t67.875-28.125zM256 544h256q13.25 0 22.625 9.375t9.375 22.625-9.375 22.625-22.625 9.375h-256q-13.25 0-22.625-9.375t-9.375-22.625 9.375-22.625 22.625-9.375zM256 416h256q13.25 0 22.625 9.375t9.375 22.625-9.375 22.625-22.625 9.375h-256q-13.25 0-22.625-9.375t-9.375-22.625 9.375-22.625 22.625-9.375zM608 64h-448q-13.25 0-22.625 9.375t-9.375 22.625v576q0 13.25 9.375 22.625t22.625 9.375h448q13.25 0 22.625-9.375t9.375-22.625v-576q0-13.25-9.375-22.625t-22.625-9.375zM256 288h256q13.25 0 22.625 9.375t9.375 22.625-9.375 22.625-22.625 9.375h-256q-13.25 0-22.625-9.375t-9.375-22.625 9.375-22.625 22.625-9.375zM256 160h128q13.25 0 22.625 9.375t9.375 22.625-9.375 22.625-22.625 9.375h-128q-13.25 0-22.625-9.375t-9.375-22.625 9.375-22.625 22.625-9.375z"
  ></path>
</svg>
