<svg version="1.1" xmlns="http://www.w3.org/2000/svg" xmlns:xlink="http://www.w3.org/1999/xlink" width="40" height="40" viewBox="0 0 768 768" >
  <path
    fill="#3cb371"
    d="M544 32q37.75 0 72.875 14.25t62.875 42 42 62.875 14.25 72.875q0 37.5-14.375 72.875t-41.875 62.875l-96 96q-2.75 2.75-8.25 7.75-26.75 23.75-59.75 36.125t-67.75 12.375q-43.75 0-82.75-18.75-29.25-13.75-53-37.5t-37.5-53q18.75-18.75 45.25-18.75 9.25 0 18.75 2.75 16.25 26.25 42.5 42.5 30.75 18.75 66.75 18.75 25 0 48.5-9.5t42-28l96-96q18.5-18.5 28-42t9.5-48.5-9.5-48.5-28-42-42-28-48.5-9.5-48.5 9.5-42 28l-67.25 67.25q-32-8.75-66.25-8.75-5.5 0-15.5 0.5 5-5.5 7.75-8.25l96-96q27.5-27.5 62.875-41.875t72.875-14.375zM320 256q43.75 0 82.75 18.75 29.25 13.75 53 37.5t37.5 53q-18.75 18.75-45.25 18.75-9.25 0-18.75-2.75-16.25-26.25-42.5-42.5-30.75-18.75-66.75-18.75-25 0-48.5 9.5t-42 28l-96 96q-18.5 18.5-28 42t-9.5 48.5 9.5 48.5 28 42 42 28 48.5 9.5 48.5-9.5 42-28l67.25-67.25q32 8.75 66.25 8.75 5.5 0 15.5-0.5-5 5.5-7.75 8.25l-96 96q-27.75 27.75-62.875 42t-72.875 14.25q-37.5 0-72.875-14.375t-62.875-41.875q-27.75-27.75-42-62.875t-14.25-72.875 14.25-72.875 42-62.875l96-96q2.75-2.75 8.25-7.75 26.75-23.75 59.75-36.125t67.75-12.375z"
  ></path>
</svg>
