<svg xmlns="http://www.w3.org/2000/svg" width="40" height="40" viewBox="0 0 768 768"><path fill="#3cb371" d="M544 32q37.75 0 72.875 14.25t62.875 42 42 62.875T736 224q0 37.5-14.375 72.875T679.75 359.75l-96 96q-2.75 2.75-8.25 7.75-26.75 23.75-59.75 36.125T448 512q-43.75 0-82.75-18.75-29.25-13.75-53-37.5t-37.5-53Q293.5 384 320 384q9.25 0 18.75 2.75 16.25 26.25 42.5 42.5Q412 448 448 448q25 0 48.5-9.5t42-28l96-96q18.5-18.5 28-42T672 224t-9.5-48.5-28-42-42-28T544 96t-48.5 9.5-42 28l-67.25 67.25Q354.25 192 320 192q-5.5 0-15.5.5 5-5.5 7.75-8.25l96-96q27.5-27.5 62.875-41.875T544 32zM320 256q43.75 0 82.75 18.75 29.25 13.75 53 37.5t37.5 53Q474.5 384 448 384q-9.25 0-18.75-2.75-16.25-26.25-42.5-42.5Q356 320 320 320q-25 0-48.5 9.5t-42 28l-96 96q-18.5 18.5-28 42T96 544t9.5 48.5 28 42 42 28T224 672t48.5-9.5 42-28l67.25-67.25q32 8.75 66.25 8.75 5.5 0 15.5-.5-5 5.5-7.75 8.25l-96 96q-27.75 27.75-62.875 42T224 736q-37.5 0-72.875-14.375T88.25 679.75q-27.75-27.75-42-62.875T32 544t14.25-72.875 42-62.875l96-96q2.75-2.75 8.25-7.75 26.75-23.75 59.75-36.125T320 256z"/></svg>