<svg version="1.1" xmlns="http://www.w3.org/2000/svg" xmlns:xlink="http://www.w3.org/1999/xlink" width="40" height="40" viewBox="0 0 768 768">
  <path
    fill="#3cb371"
    d="M32 416h192q13.25 0 22.625 9.375t9.375 22.625-9.375 22.625-22.625 9.375h-108l87 85q37 37.25 84.75 56.25 45.75 18.75 96.25 18.75t96.25-18.75q25-10.25 46.875-25.125t37.25-30.5 28-33.5 20.25-32.875 12.875-30q4.5-12.5 16.5-18.125t24.25-1.375q12.5 4.5 18.125 16.375t1.375 24.125q-10.5 32-30.5 63.5t-45 56.5q-46 46-105.75 70.25-58 23.5-120.5 23.5-62.25 0-120.5-23.5-59.75-24.25-105.75-70.25l-93.75-91.75v121.5q0 13.25-9.375 22.625t-22.625 9.375-22.625-9.375-9.375-22.625v-192q0-13.25 9.375-22.625t22.625-9.375zM384 64q62.25 0 120.5 23.5 59.75 24.25 105.75 70.25l0.5 0.5 93.25 91.25v-121.5q0-13.25 9.375-22.625t22.625-9.375 22.625 9.375 9.375 22.625v192q0 13.25-9.375 22.625t-22.625 9.375h-192q-13.25 0-22.625-9.375t-9.375-22.625 9.375-22.625 22.625-9.375h108l-87-85q-36.5-36.5-83.125-55.75t-97.875-19.25q-50.5 0-96.25 18.75-47.75 19-84.75 56.25-15 13.25-32.875 40.375t-27.625 55.375q-4.5 12.5-16.5 18.125t-24.25 1.375q-12.5-4.5-18.125-16.375t-1.375-24.125q10.5-32 30.5-63.5t45-56.5q46-46 105.75-70.25 58.25-23.5 120.5-23.5z"
  ></path>
</svg>
