<svg id="レイヤー_1" data-name="レイヤー 1" xmlns="http://www.w3.org/2000/svg" viewBox="0 0 213.69 183.2" width="40%"><defs><style>.cls-1,.cls-3,.cls-4,.cls-5,.cls-6{fill:none;stroke:#fff;stroke-linecap:round}.cls-1{stroke-miterlimit:10}.cls-1,.cls-4{stroke-width:5px}.cls-2{fill:#fff}.cls-3,.cls-4,.cls-5,.cls-6{stroke-linejoin:round}.cls-3{stroke-width:3px}.cls-5{stroke-width:4.55px}.cls-6{stroke-width:3.09px}</style></defs><ellipse class="cls-1" cx="157.74" cy="54.4" rx="45.5" ry="51.9"/><ellipse class="cls-2" cx="141.54" cy="60.8" rx="3.7" ry="5.6"/><ellipse class="cls-2" cx="173.84" cy="60.8" rx="3.7" ry="5.6"/><path class="cls-3" d="M157.54 64.3l-6.2 11.6h5.5"/><path class="cls-3" d="M454.7 292.8c2.5 4 10 6 15.9 6s13.4-2 15.9-6" transform="translate(-312.86 -205)"/><path class="cls-4" d="M427.2 277.6a7.08 7.08 0 0 1-8.7-5l-1.8-6.7a7.08 7.08 0 0 1 5-8.7M513.3 277.6a7.08 7.08 0 0 0 8.7-5l1.8-6.7a7.08 7.08 0 0 0-5-8.7" transform="translate(-312.86 -205)"/><path class="cls-3" d="M157.75 112.1l-9.1 6-6.21-4.1-1-6.8 4.4-2.9 11.91 7.8z"/><path class="cls-3" d="M157.65 112.1l9.1 6 5.09-3.4 1.2-8.1-3.5-2.3-11.89 7.8z"/><path class="cls-2" d="M165.65 119l-7.9 7.4-7.91-7.4 7.91-5.6 7.9 5.6z"/><path class="cls-2" d="M159.54 172.2h-5l-3.5-19.7 3.4-30.8h6.5l3.6 31.9-5 18.6z"/><path class="cls-3" d="M173.84 106.3l-17.19 73.8h5.39l18.4-42.5-3.1-6.3 5.7-6-2.79-16.4-6.41-2.6z"/><path class="cls-3" d="M140.54 106.3l17.21 73.8h-5.41l-18.4-42.5 3.1-6.3-5.7-6 2.81-16.4 6.39-2.6z"/><path class="cls-1" d="M509.7 335.1a23.28 23.28 0 0 0-23.2-23.2h-31.6a23.28 23.28 0 0 0-23.2 23.2v50h78.1v-50z" transform="translate(-312.86 -205)"/><path class="cls-2" d="M507.9 228.3c-7.6-11.3-16.7-18.6-21-17-6.7-6.1-22.2-4.6-37 3.9-8.3 4.8-14.8 11-18.6 17a45.51 45.51 0 0 1-4.3-2.8c-3.1-1.8-6.7-1.5-6 3.9 0 0 3.3 16.9 15.6 20.3l1.2.3c7.9 1.7 19.3-.7 30.3-7.1 9.3-5.4 16.3-12.4 19.8-19.1a72.35 72.35 0 0 0 5.8 10.2c8 11.9 17.6 19.3 21.6 16.7s.6-14.4-7.4-26.3zm-52.3 12.2a60.18 60.18 0 0 0 19.9-5.8c-10.5 7.3-18.2 9.9-31.4 8.7-8.1-.7-10.8-3.6-10.8-3.6 7.4 2.4 17.7 1.2 22.3.7zm-13.9 9.3c-8.3-1.1-11-5.3-11-5.3 7.7 3.7 18.2 1.9 22.9 1.1 12.4-2.1 25.7-12.8 25.7-12.8-10 11.5-24 18.7-37.6 17zm62.8-4.4c-6.6-5.1-12.4-15.3-12.4-15.3s6.7 8.4 10.9 11.8a24.1 24.1 0 0 0 7.8 4.4l.8 3.7c0-.1-1.6-.4-7.1-4.6z" transform="translate(-312.86 -205)"/><path class="cls-4" d="M37.94 58.3h30.5v16h-30.5z"/><path class="cls-4" d="M404.8 385.7h-77.5a10 10 0 0 1-10-10v-95.9a10 10 0 0 1 10-10h77.5a10 10 0 0 1 10 10v95.9a10 10 0 0 1-10 10z" transform="translate(-312.86 -205)"/><path class="cls-3" d="M34.84 93.3h48.6M34.84 109.8h48.6M34.84 126.3h48.6M34.84 142.9h48.6M34.84 159.4h48.6"/><path class="cls-5" d="M16.64 89.3l2.5 4.4 7.31-9M16.64 107.2l2.5 4.3 7.31-9M16.64 125l2.5 4.3 7.31-9"/><path class="cls-6" d="M16.54 25.3l5.2 17.5M1.54 36.4l12 9.9M35.24 26.5l-4.7 14.8"/></svg>