<svg version="1.1" xmlns="http://www.w3.org/2000/svg" xmlns:xlink="http://www.w3.org/1999/xlink" width="40" height="40" viewBox="0 0 768 768" >
  <path
    fill="#3cb371"
    d="M128 32h512q39.75 0 67.875 28.125t28.125 67.875v352q0 39.75-28.125 67.875t-67.875 28.125h-256l-224 160v-160h-32q-39.75 0-67.875-28.125t-28.125-67.875v-352q0-39.75 28.125-67.875t67.875-28.125zM640 96h-512q-13.25 0-22.625 9.375t-9.375 22.625v352q0 13.25 9.375 22.625t22.625 9.375h96v99.75l139.5-99.75h276.5q13.25 0 22.625-9.375t9.375-22.625v-352q0-13.25-9.375-22.625t-22.625-9.375z"
  ></path>
</svg>
