<svg version="1.1" xmlns="http://www.w3.org/2000/svg" xmlns:xlink="http://www.w3.org/1999/xlink" width="40" height="40" viewBox="0 0 512 512">
  <path
    fill="#3cb371"
    d="M192 0h128q26.5 0 45.25 18.75t18.75 45.25v49q30 26.666 47 63.916t17 79.084-17 79-47 64v49q0 26.5-18.75 45.25t-45.25 18.75h-128q-26.5 0-45.25-18.75t-18.75-45.25v-49q-30-26.834-47-64t-17-79 17-79.084 47-63.916v-49q0-26.5 18.75-45.25t45.25-18.75zM341.334 448v-20q-40 20-85.334 20t-85.334-20v20q0 8.834 6.25 15.084t15.084 6.25h128q8.834 0 15.084-6.25t6.25-15.084zM256 106.666q-30.334 0-58 11.834t-47.666 31.834-31.834 47.666-11.834 58 11.834 58 31.834 47.666 47.666 31.834 58 11.834 58-11.834 47.666-31.834 31.834-47.666 11.834-58-11.834-58-31.834-47.666-47.666-31.834-58-11.834zM256 149.333q8.834 0 15.084 6.25t6.25 15.083v76.5l36.5 36.334q6.166 6.166 6.166 15.166t-6.166 15.166-15.166 6.166-15.166-6.166l-42.666-42.666q-6.167-6.166-6.167-15.166v-85.334q0-8.834 6.25-15.084t15.083-6.25zM320 42.666h-128q-8.834 0-15.084 6.25t-6.25 15.084v20q40-20 85.334-20t85.334 20v-20q0-8.834-6.25-15.084t-15.084-6.25z"
  ></path>
</svg>
